# xmcd
#
# Track frame offsets:
#	150
#	18662
#	36853
#	56222
#	80112
#	97997
#	115938
#	136958
#	153422
#	168548
#	184051
#	201692
#	221381
#	238521
#	257123
#	269498
#	288240
#	309176
#
# Disc length: 4342 seconds
#
# Revision: 1
# Processed by: cddbd v1.5.2PL0 Copyright (c) Steve Scherf et al.
# Submitted via: audiograbber 1.83.01
#
DISCID=0b10f412
DTITLE=Игорь Слуцкий - Золотая коллекция шансона
DYEAR=2001
DGENRE=Шансон
TTITLE0=Туда
TTITLE1=Две кобылки
TTITLE2=Калина красная
TTITLE3=Кони
TTITLE4=Оборвётся струна
TTITLE5=Тишина матросская
TTITLE6=Коля Зорин
TTITLE7=Струны
TTITLE8=Позади
TTITLE9=Между мной и тобой
TTITLE10=Маленький бродяга
TTITLE11=Холода
TTITLE12=Белые поленья
TTITLE13=Постой душа
TTITLE14=Шоферская жена
TTITLE15=Когда я навсегда вернусь
TTITLE16=Не могу по-другому
TTITLE17=Приходите в мой дом
EXTD=
EXTT0=
EXTT1=
EXTT2=
EXTT3=
EXTT4=
EXTT5=
EXTT6=
EXTT7=
EXTT8=
EXTT9=
EXTT10=
EXTT11=
EXTT12=
EXTT13=
EXTT14=
EXTT15=
EXTT16=
EXTT17=
PLAYORDER=
